<?xml version="1.0" encoding="UTF-8"?>
<svg id="katman_1" data-name="katman 1" xmlns="http://www.w3.org/2000/svg" xmlns:xlink="http://www.w3.org/1999/xlink" viewBox="0 0 303.1 86.82">
  <defs>
    <style>
      .cls-1 {
        fill: none;
      }

      .cls-2 {
        fill-rule: evenodd;
      }

      .cls-2, .cls-3 {
        fill: #45535c;
      }

      .cls-4 {
        clip-path: url(#clippath);
      }

      .cls-5 {
        fill: #b79846;
      }
    </style>
    <clipPath id="clippath">
      <rect class="cls-1" x="-59.9" y="152.59" width="1528" height="771"/>
    </clipPath>
  </defs>
  <g>
    <g>
      <polygon class="cls-2" points="0 1.02 17.37 1.02 31.53 24.03 45.69 1.02 63.06 1.02 63.06 60.46 46.7 60.46 46.7 26.33 31.53 49.59 31.19 49.59 16.1 26.5 16.1 60.46 0 60.46 0 1.02"/>
      <polygon class="cls-5" points="79.77 9.41 79.77 1.02 63.06 1.02 63.06 26.12 79.77 9.41"/>
      <polygon class="cls-5" points="118.36 9.41 118.36 1.02 101.65 1.02 101.65 26.12 118.36 9.41"/>
      <g>
        <path class="cls-3" d="M246.69,1.02h22.9c21.21,0,33.51,12.22,33.51,29.34v.17c0,17.14-12.47,29.86-33.83,29.86h-22.57V1.02ZM269.85,45.81c9.84,0,16.37-5.43,16.37-15.02v-.17c0-9.5-6.53-15.01-16.37-15.01h-6.69v30.2h6.69Z"/>
        <polygon class="cls-5" points="180.28 9.41 180.28 1.02 163.58 1.02 163.58 26.12 180.28 9.41"/>
        <path class="cls-3" d="M101.65,31.8v2.64c0,8.32-4.33,12.21-10.94,12.21s-10.94-4.07-10.94-12.63V14.62l-16.71,16.71v3.02c0,18.57,10.6,27.14,27.48,27.14s27.82-8.4,27.82-27.57V15.08l-16.71,16.71Z"/>
        <path class="cls-3" d="M148.12,47.01c-1.08.44-2.4.74-4.13.74-6.87,0-13.41-2.46-19.25-7.13l-9.16,10.95c5.22,4.67,11.85,7.62,19.04,8.95l13.51-13.51Z"/>
        <polygon class="cls-3" points="221.42 .65 205.56 .65 179.85 60.45 197.59 60.45 213.37 20.15 229.06 60.45 246.69 60.45 221.42 .65"/>
        <path class="cls-3" d="M134.99,17.64v-.17c0-2.12,1.95-3.82,5.94-3.82,5.25,0,12.35,3.2,17.78,7.01l.03-2.84V3.54c-4.98-2.32-10.69-3.54-17.4-3.54-14.24,0-22.98,7.97-22.98,19v.16c0,12.22,9.75,15.78,22.39,18.66,8.06,1.86,10.01,3.22,10.01,5.68v.17c0,.34-.15.62-.24.93l13.04-13.05c-3.74-4-10.05-6.36-18.31-8.15-8.23-1.87-10.27-3.05-10.27-5.77"/>
        <polygon class="cls-3" points="163.67 31.62 163.67 60.39 180.2 60.39 180.2 15.08 163.67 31.62"/>
      </g>
    </g>
    <g>
      <path class="cls-3" d="M95.58,78.13l5.52,1.67c-.37,1.55-.95,2.84-1.75,3.88-.8,1.04-1.79,1.82-2.97,2.35-1.18.53-2.68.79-4.51.79-2.21,0-4.02-.32-5.42-.96s-2.61-1.77-3.63-3.39c-1.02-1.62-1.53-3.69-1.53-6.22,0-3.37.9-5.96,2.69-7.77,1.79-1.81,4.33-2.71,7.61-2.71,2.56,0,4.58.52,6.05,1.56,1.47,1.04,2.56,2.63,3.27,4.78l-5.56,1.24c-.19-.62-.4-1.07-.61-1.36-.35-.48-.78-.85-1.29-1.11-.51-.26-1.08-.39-1.71-.39-1.43,0-2.52.57-3.28,1.72-.57.85-.86,2.19-.86,4.01,0,2.26.34,3.8,1.03,4.64.68.84,1.65,1.26,2.89,1.26s2.11-.34,2.73-1.01c.62-.68,1.06-1.66,1.34-2.94Z"/>
      <path class="cls-3" d="M116.67,83.11h-7.14l-.99,3.36h-6.43l7.66-20.37h6.87l7.65,20.37h-6.59l-1.02-3.36ZM115.37,78.7l-2.25-7.32-2.22,7.32h4.47Z"/>
      <path class="cls-3" d="M126.33,66.1h5.88l7.67,11.27v-11.27h5.93v20.37h-5.93l-7.63-11.18v11.18h-5.92v-20.37Z"/>
      <path class="cls-3" d="M162.23,83.11h-7.14l-.99,3.36h-6.43l7.66-20.37h6.86l7.65,20.37h-6.59l-1.02-3.36ZM160.92,78.7l-2.25-7.32-2.22,7.32h4.47Z"/>
      <path class="cls-3" d="M171.92,66.1h9.35c1.84,0,3.33.25,4.47.75s2.07,1.22,2.81,2.15c.74.94,1.28,2.02,1.61,3.27s.5,2.56.5,3.95c0,2.18-.25,3.86-.74,5.06-.5,1.2-1.18,2.2-2.06,3.01-.88.81-1.83,1.35-2.83,1.62-1.38.37-2.63.56-3.75.56h-9.35v-20.37ZM178.22,70.72v11.13h1.54c1.31,0,2.25-.15,2.81-.44.56-.29.99-.8,1.31-1.53.31-.73.47-1.91.47-3.54,0-2.16-.35-3.64-1.06-4.43s-1.87-1.19-3.5-1.19h-1.57Z"/>
      <path class="cls-3" d="M205.27,83.11h-7.15l-.99,3.36h-6.43l7.65-20.37h6.87l7.65,20.37h-6.59l-1.02-3.36ZM203.96,78.7l-2.25-7.32-2.22,7.32h4.47Z"/>
    </g>
  </g>
  <g class="cls-4">
    <image width="1600" height="1066" transform="translate(-59.9 9.7) scale(.96)" xlink:href="../Documents/WORK/Musiad-canada/02-images/GdU4DVKWMAAC-Gr.jpg"/>
  </g>
</svg>